<?xml version="1.0" encoding="utf-8"?>
<!-- Generator: Adobe Illustrator 26.0.2, SVG Export Plug-In . SVG Version: 6.00 Build 0)  -->
<svg version="1.1" id="Layer_1" xmlns="http://www.w3.org/2000/svg" xmlns:xlink="http://www.w3.org/1999/xlink" x="0px" y="0px"
	 viewBox="0 0 103.8 71.2" style="enable-background:new 0 0 103.8 71.2;" xml:space="preserve">
<style type="text/css">
	.st0{fill:#FFFFFF;}
</style>
<g id="Page-1">
	
		<g id="logo" transform="translate(58.500000, 59.000000) rotate(45.000000) translate(-58.500000, -59.000000) translate(21.000000, 14.000000)">
		
			<g id="g14" transform="translate(37.500000, 45.000000) scale(-1, 1) rotate(-180.000000) translate(-37.500000, -45.000000) translate(0.000000, 0.000000)">
			<g id="g24" transform="translate(0.000000, -0.000000)">
				<path id="path26" class="st0" d="M21.3,99.4C12.8,99.4,5,96-0.6,90.4C-6.2,84.8-9.7,77-9.7,68.5l0-0.4V9.4
					c7.3,4.5,14.4,8.8,21.8,13.1v24.9v18.1c0,9.7,2.2,16.9,10.7,22.2h0c-5.3-0.4-9.7-2.4-12.9-5.4c-6.5-6-6.2-11.1-6.1-19.1V27.3
					l-5.2-3v23.2c0,1.2,0,9.8,0,16c0,4.8-0.3,8.5,1.4,13.1c1.2,3.1,2.9,5.8,5.2,8.1c4.1,4.1,9.8,6.6,16.1,6.6c6.3,0,12-2.5,16.1-6.6
					c4.1-4.1,6.7-9.8,6.7-16.1c0-6.3-2.5-11.9-6.7-16.1c-4.1-4.1-9.8-6.6-16.1-6.6c-0.5,0-1,0-1.6,0.1v-8.3c0.5,0,1,0,1.6,0
					c8.6,0,16.3,3.5,21.9,9.1c5.6,5.6,9.1,13.3,9.1,21.9s-3.5,16.3-9.1,21.9C37.6,96,29.9,99.4,21.3,99.4L21.3,99.4z"/>
			</g>
			<g id="g28" transform="translate(45.000000, 28.000000)">
				<path id="path30" class="st0" d="M11.9,38.4C10.8,27.6,5,13.7-9.5,9.4c8.1,0.4,15.3,3.7,20.7,9.1c5.6,5.6,9.1,13.4,9.1,21.9
					c0,8.6-3.5,16.3-9.1,21.9c-5.4,5.4-12.7,8.8-20.9,9.1C3,68.3,13.4,52.5,11.9,38.4"/>
			</g>
		</g>
	</g>
</g>
</svg>
