<svg width="32px" height="24px" viewBox="0 0 32 24" version="1.1" xmlns="http://www.w3.org/2000/svg"
     xmlns:xlink="http://www.w3.org/1999/xlink">
    <g stroke="none" stroke-width="1" fill="none" fill-rule="evenodd">
        <g id="klarna" transform="translate(0.000000, 0.000000)" fill-rule="nonzero">
            <rect id="Rectangle" fill="#FFB3C7" x="0" y="0" width="32" height="24" rx="3.07271111"></rect>
            <g id="Group" transform="translate(3.138797, 8.973360)" fill="#0A0B09">
                <path d="M25.8699851,4.44178624 C25.4513185,4.44178624 25.1119407,4.78424313 25.1119407,5.20672846 C25.1119407,5.62912846 25.4513185,5.97167068 25.8699851,5.97167068 C26.2886447,5.97167068 26.6281007,5.6291498 26.6281007,5.20672846 C26.6281007,4.78421468 26.2886589,4.44178624 25.8699851,4.44178624 Z M23.3759051,3.85038357 C23.3759051,3.27198002 22.8859709,2.80320135 22.2815762,2.80320135 C21.6771816,2.80320135 21.1871762,3.27200135 21.1871762,3.85038357 C21.1871762,4.42879424 21.6771176,4.89770802 22.2815762,4.89770802 C22.8860349,4.89770802 23.3759051,4.42879424 23.3759051,3.85038357 Z M23.379969,1.81504135 L24.5877201,1.81504135 L24.5877201,5.88558357 L23.379969,5.88558357 L23.379969,5.62543068 C23.0387637,5.86023957 22.6269023,5.99827335 22.1826712,5.99827335 C21.0071334,5.99827335 20.0541023,5.0366378 20.0541023,3.85036224 C20.0541023,2.66408668 21.0071334,1.70252224 22.1826712,1.70252224 C22.6269023,1.70252224 23.0387779,1.84054891 23.379969,2.07542891 L23.379969,1.81502713 L23.379969,1.81504135 Z M13.7145468,2.34526002 L13.7145468,1.81509824 L12.4779957,1.81509824 L12.4779957,5.88556935 L13.7173201,5.88556935 L13.7173201,3.98512491 C13.7173201,3.34393735 14.4060241,2.99931157 14.8838979,2.99931157 C14.8887916,2.99931157 14.8933599,2.99978639 14.8982538,2.99984683 L14.8982538,1.81542016 C14.4077791,1.81542016 13.9566716,2.02733127 13.7145382,2.34534016 L13.7145468,2.34526002 Z M10.6342979,3.8503978 C10.6342979,3.27199424 10.1443068,2.80321557 9.53989788,2.80321557 C8.93551744,2.80321557 8.44549788,3.27201557 8.44549788,3.8503978 C8.44549788,4.42880846 8.935489,4.89772224 9.53989788,4.89772224 C10.1443281,4.89772224 10.6342979,4.42880846 10.6342979,3.8503978 Z M10.6382933,1.81505557 L11.8461156,1.81505557 L11.8461156,5.8855978 L10.6382933,5.8855978 L10.6382933,5.62544491 C10.297088,5.8602538 9.88522667,5.99828757 9.44106667,5.99828757 C8.26545778,5.99828757 7.31242667,5.03665202 7.31242667,3.85037646 C7.31242667,2.66410091 8.26545778,1.70253646 9.44106667,1.70253646 C9.88525511,1.70253646 10.2971022,1.84056313 10.6382933,2.07544313 L10.6382933,1.81504135 L10.6382933,1.81505557 Z M17.9079822,1.70557291 C17.4255218,1.70557291 16.9688889,1.85671957 16.6636089,2.27371513 L16.6636089,1.81529735 L15.4610489,1.81529735 L15.4610489,5.88562624 L16.6784,5.88562624 L16.6784,3.74653291 C16.6784,3.12753913 17.0897564,2.82443513 17.5850667,2.82443513 C18.1158827,2.82443513 18.4210489,3.14440668 18.4210489,3.7381418 L18.4210489,5.88562624 L19.6273778,5.88562624 L19.6273778,3.29711068 C19.6273778,2.34983957 18.8809956,1.70564402 17.9079822,1.70564402 L17.9079822,1.70557291 Z M5.55313778,5.88562624 L6.81728,5.88562624 L6.81728,0.00111068444 L5.55313778,0.00111068444 L5.55313778,5.88562624 L5.55313778,5.88562624 Z M0,5.887232 L1.33859556,5.887232 L1.33859556,1.42222222e-05 L0,1.42222222e-05 L0,5.887232 Z M4.68195556,0 C4.68195556,1.27453867 4.18973156,2.46017422 3.31264,3.34145422 L5.16295111,5.88744533 L3.50961778,5.88744533 L1.49873778,3.120512 L2.01771378,2.72832 C2.87837156,2.07776711 3.37202489,1.08337778 3.37202489,0 L4.68196267,0 L4.68195556,0 Z"
                      id="Shape"></path>
            </g>
        </g>
    </g>
</svg>
