<?xml version="1.0" encoding="utf-8"?><svg viewBox="0 0 644 373" xmlns="http://www.w3.org/2000/svg" xmlns:xlink="http://www.w3.org/1999/xlink"><style>:root>svg{display:none}:root>svg:target{display:block}</style><svg viewBox="0 0 101 24" id="credit-cards" xmlns="http://www.w3.org/2000/svg"><defs><rect id="aa" x="0" y="0" width="31" height="34" rx="8"/></defs><g fill-rule="evenodd"><path d="M73.629 0h23.742c2 0 3.629 1.711 3.629 3.834v16.332C101 22.29 99.37 24 97.371 24H73.629c-2 0-3.629-1.711-3.629-3.834V3.834C70 1.71 71.63 0 73.629 0z" fill-rule="nonzero"/><g transform="translate(70 -4)"><mask id="ab"><use xlink:href="#aa"/></mask><g mask="url(#ab)"><path d="M1.831 13.635l-.697-1.65-.581 1.65H1.83zm13.72-.761c-.08.124-.228.127-.348.127H14.04v-.89h1.163c.117 0 .282.008.348.128.16.003.233.127.233.254 0 .22-.07.36-.233.38zm8.14.761l-.698-1.65-.582 1.65h1.28zM8.807 15.54h-.93v-3.301l-1.396 3.3h-.814l-1.279-3.3v3.3H2.413l-.349-.888H.204l-.35.889h-1.046l1.628-4.19h1.395l1.628 3.936V11.35h1.512l1.163 2.793 1.162-2.793h1.512v4.19zm3.72 0H9.505v-4.19h3.023v.889h-2.092V13h2.092v.888h-2.092v.762h2.092v.889zm4.419-3.047c0 .653-.413.999-.698 1.142a.79.79 0 01.465.254c.169.267.192.454.233.889v.762h-.93v-.508c-.05-.273-.027-.635-.233-.889-.098-.095-.304-.127-.581-.127h-1.047v1.524h-.93v-4.19h2.093c.51 0 .86.014 1.163.254.29.134.465.407.465.889zm1.395 3.047h-.93v-4.19h.93v4.19zm10.93 0h-1.28l-1.744-3.174v3.174h-1.86l-.465-.889h-1.86l-.35.889h-1.046c-.478 0-1.046-.108-1.395-.508-.296-.311-.465-.793-.465-1.524 0-.652.1-1.22.465-1.65.33-.354.797-.508 1.395-.508h.93v.889h-.93c-.28.009-.47.063-.697.254-.113.18-.221.513-.233 1.015.012.386.094.71.233.89.174.197.432.247.697.253h.35l1.394-3.3h1.28l1.627 3.935V11.35h1.396l1.627 2.92v-2.92h.93v4.19zm-30.464.762H.436l.349-.89h.698l.348.89h3.14v-.762l.349.762h1.51l.349-.762v.762h7.674v-1.524h.116c.134-.002.164.009.116.254v1.27h4.07v-.381c.284.21.783.378 1.395.38h1.744l.349-.888h.814l.349.889h3.255v-.89l.465.89h2.558v-5.84h-2.558v.634l-.348-.635h-2.675v.635l-.348-.635h-3.489c-.604 0-1.127.09-1.511.381v-.38h-2.442v.38c-.314-.298-.68-.38-1.046-.38H6.715l-.698 1.523-.581-1.524h-2.79v.635l-.35-.635H-.028l-1.163 2.794v3.047zm33.059 2.312h-1.744c-.122 0-.234.006-.349.127-.078.01-.116.107-.116.254 0 .132.083.235.232.254.07.06.175.07.35.127h.464c.53-.03.87.061 1.047.254.067.058.09.092.116.126v-1.142zm0 2.666c-.224.392-.66.572-1.279.635h-1.744v-1.016h1.744c.197.056.32.03.349 0 .109-.112.154-.206.116-.38.038-.062-.007-.16-.116-.255-.026-.026-.123-.055-.233 0-.916-.087-1.996-.026-1.976-1.396-.02-.56.335-1.2 1.279-1.143h1.86v-.889h-1.744c-.477 0-.851.134-1.163.381v-.38h-2.442c-.438 0-.912.108-1.162.38v-.38H20.82v.38c-.304-.32-.91-.38-1.163-.38h-3.023v.38c-.26-.337-.89-.38-1.279-.38h-3.371l-.698.888-.698-.889h-5v5.84h4.884l.814-.888.698.889h3.023V21.28h.232c.449.03.92.013 1.28-.127v1.524h2.557v-1.524h.116c.133 0 .148.006.117.127v1.397h7.557c.483-.004.982-.136 1.28-.381v.38h2.325c.54-.003 1.026-.078 1.395-.253V21.28zm-3.604-1.524c.135.15.232.406.232.89 0 .848-.521 1.269-1.511 1.269H25.24v-.889h1.744c.223-.01.348-.035.465-.127.025-.051.07-.145.116-.254a1.255 1.255 0 00-.116-.254.521.521 0 00-.35-.127c-.89-.027-1.976.034-1.976-1.27 0-.63.354-1.269 1.28-1.269h1.86v.889h-1.628c-.197.003-.306.01-.349.127-.152.02-.19.12-.233.254.043.157.13.265.233.254.11.094.216.105.349.127h.581c.446.005.792.1 1.047.38zm-8.488-.507c-.078.12-.229.127-.349.127h-1.163v-.89h1.163c.12 0 .283.004.349.128.162.008.232.131.232.254 0 .216-.07.352-.232.38zm.581.761c.248.04.417.187.465.254.16.26.18.45.233.762v.889h-.93v-.508c-.047-.268-.025-.642-.233-.889-.099-.098-.305-.133-.698-.127h-.93v1.524h-.93v-4.19h2.093c.509 0 .85.022 1.163.254.281.135.465.396.465.889 0 .654-.412.995-.698 1.142zm1.28-2.285h3.022v.889h-2.093v.762h2.093v.888h-2.093v.762h2.093v.889h-3.023v-4.19zm-6.28 1.778h-1.162v-1.016h1.162c.354 0 .582.14.582.508 0 .326-.218.508-.582.508zm-2.092 1.904l-1.396-1.65 1.396-1.651v3.301zm-3.605-.508H7.334v-.762h2.093v-.888H7.334v-.762h2.325l1.047 1.143-1.047 1.27zm7.209-1.777c0 1.147-.796 1.388-1.628 1.396h-1.163v1.397h-1.744l-1.162-1.397-1.163 1.397H6.404v-4.19h3.72l1.047 1.397 1.162-1.397h3.023c.694 0 1.512.22 1.512 1.397z" fill-rule="nonzero"/></g></g><path d="M38.629.5h23.742C64.371.5 66 2.14 66 4.174v15.652c0 2.034-1.63 3.674-3.629 3.674H38.629c-2 0-3.629-1.64-3.629-3.674V4.174C35 2.14 36.63.5 38.629.5z" fill-rule="nonzero"/><path d="M47.403 17.217c2.85 0 5.162-2.336 5.162-5.217 0-2.882-2.311-5.217-5.162-5.217-2.85 0-5.161 2.335-5.161 5.217 0 2.881 2.31 5.217 5.161 5.217z" fill-rule="nonzero"/><path d="M53.597 17.217c2.85 0 5.161-2.336 5.161-5.217 0-2.882-2.31-5.217-5.161-5.217-2.85 0-5.162 2.335-5.162 5.217 0 2.881 2.311 5.217 5.162 5.217z" fill-rule="nonzero"/><path d="M50.5 7.826A5.228 5.228 0 0152.565 12a5.227 5.227 0 01-2.065 4.174A5.228 5.228 0 0148.435 12c0-1.707.811-3.222 2.065-4.174z" opacity=".3"/><g fill-rule="nonzero"><path d="M27.125 0H3.875C1.735 0 0 1.79 0 4v16c0 2.21 1.735 4 3.875 4h23.25C29.265 24 31 22.21 31 20V4c0-2.21-1.735-4-3.875-4z"/><path d="M15.792 10.918c-.01.836.681 1.302 1.202 1.58.535.284.715.467.713.721-.004.39-.427.561-.823.568-.69.012-1.091-.204-1.41-.367l-.249 1.272c.32.161.913.302 1.528.308 1.442 0 2.386-.778 2.391-1.985.006-1.532-1.938-1.616-1.925-2.301.005-.208.186-.43.583-.485.197-.029.74-.05 1.355.259l.241-1.23A3.407 3.407 0 0018.113 9c-1.358 0-2.313.789-2.321 1.918zm5.926-1.812c-.263 0-.485.168-.584.426l-2.061 5.378h1.441l.287-.867h1.762l.166.867H24l-1.109-5.804h-1.173zm.202 1.568l.416 2.18h-1.14l.724-2.18zm-7.876-1.568l-1.136 5.804h1.373l1.136-5.804h-1.373zm-2.032 0l-1.43 3.95-.578-3.359c-.068-.375-.336-.591-.634-.591H7.033L7 9.274c.48.114 1.025.298 1.355.494.202.12.26.225.327.51l1.095 4.632h1.452l2.226-5.804h-1.443z"/></g></g></svg><svg version="1.1" id="footer" x="0" y="0" viewBox="0 0 103.8 71.2" xml:space="preserve" xmlns="http://www.w3.org/2000/svg"><style>.bst0{fill:#fff}</style><g id="bPage-1"><g id="blogo" transform="rotate(45 31.1 77.35)"><g id="bg14" transform="matrix(1 0 0 -1 0 90)"><g id="bg24"><path id="bpath26" class="bst0" d="M21.3 99.4c-8.5 0-16.3-3.4-21.9-9-5.6-5.6-9.1-13.4-9.1-21.9V9.4c7.3 4.5 14.4 8.8 21.8 13.1v43c0 9.7 2.2 16.9 10.7 22.2-5.3-.4-9.7-2.4-12.9-5.4-6.5-6-6.2-11.1-6.1-19.1V27.3l-5.2-3v39.2c0 4.8-.3 8.5 1.4 13.1 1.2 3.1 2.9 5.8 5.2 8.1 4.1 4.1 9.8 6.6 16.1 6.6 6.3 0 12-2.5 16.1-6.6 4.1-4.1 6.7-9.8 6.7-16.1 0-6.3-2.5-11.9-6.7-16.1-4.1-4.1-9.8-6.6-16.1-6.6-.5 0-1 0-1.6.1v-8.3h1.6c8.6 0 16.3 3.5 21.9 9.1 5.6 5.6 9.1 13.3 9.1 21.9S48.8 85 43.2 90.6c-5.6 5.4-13.3 8.8-21.9 8.8z"/></g><g id="bg28" transform="translate(45 28)"><path id="bpath30" class="bst0" d="M11.9 38.4C10.8 27.6 5 13.7-9.5 9.4c8.1.4 15.3 3.7 20.7 9.1 5.6 5.6 9.1 13.4 9.1 21.9 0 8.6-3.5 16.3-9.1 21.9-5.4 5.4-12.7 8.8-20.9 9.1 12.7-3.1 23.1-18.9 21.6-33"/></g></g></g></g></svg><svg viewBox="0 0 644 373" id="header" xmlns="http://www.w3.org/2000/svg"><path d="M0 373L644 0v373z" fill-rule="evenodd"/></svg><svg viewBox="0 0 32 24" id="mollie-klarna" xmlns="http://www.w3.org/2000/svg"><rect width="32" height="24" rx="3.073"/><path d="M29.009 13.415a.761.761 0 00-.758.765c0 .422.34.765.758.765a.762.762 0 00.758-.765.762.762 0 00-.758-.765zm-2.494-.591c0-.579-.49-1.047-1.095-1.047-.604 0-1.094.468-1.094 1.047 0 .578.49 1.047 1.094 1.047.605 0 1.095-.469 1.095-1.047zm.004-2.036h1.208v4.07h-1.208v-.26a2.104 2.104 0 01-1.198.374 2.138 2.138 0 01-2.128-2.148c0-1.187.953-2.148 2.128-2.148.445 0 .857.138 1.198.373v-.26zm-9.666.53v-.53h-1.236v4.07h1.24v-1.9c0-.64.688-.985 1.166-.985h.014V10.79c-.49 0-.942.212-1.184.53zm-3.08 1.506c0-.579-.49-1.047-1.094-1.047-.605 0-1.095.468-1.095 1.047 0 .578.49 1.047 1.095 1.047.604 0 1.094-.469 1.094-1.047zm.004-2.036h1.208v4.071h-1.208v-.26a2.104 2.104 0 01-1.197.373 2.138 2.138 0 01-2.129-2.148c0-1.187.953-2.148 2.129-2.148.444 0 .856.138 1.197.373v-.26zm7.27-.11c-.483 0-.94.152-1.245.57v-.46H18.6v4.071h1.217v-2.14c0-.618.412-.921.907-.921.53 0 .836.32.836.914v2.147h1.206V12.27c0-.947-.746-1.591-1.72-1.591zM8.692 14.86h1.264V8.974H8.692v5.885zm-5.553.002h1.338V8.973H3.14v5.888zM7.82 8.973c0 1.275-.492 2.46-1.37 3.342l1.85 2.546H6.649l-2.01-2.767.519-.392A3.39 3.39 0 006.51 8.973h1.31z"/></svg><svg viewBox="0 0 32 24" id="mollie-sofort" xmlns="http://www.w3.org/2000/svg"><path d="M28 0H4a4 4 0 00-4 4v16a4 4 0 004 4h24a4 4 0 004-4V4a4 4 0 00-4-4z"/><path fill-rule="evenodd" clip-rule="evenodd" d="M18.17 7c-.92 0-1.813 0-2.614.4-.8.398-1.506 1.198-2.05 2.796a3.12 3.12 0 00-.188.897c-.008.257.037.476.137.667.122.232.32.45.568.635.249.185.546.335.866.43l.384.108c.203.058.44.126.591.171.088.026.185.06.273.113.088.051.167.12.216.215a.47.47 0 01.052.207.663.663 0 01-.04.24c-.075.217-.188.356-.404.442-.215.085-.531.113-1.012.116h-6L8 17h6.423c.604 0 1.71 0 2.77-.444 1.062-.443 2.081-1.33 2.512-3.104.163-.667.112-1.21-.153-1.637-.267-.426-.749-.736-1.45-.934l-.342-.097-.505-.143a.678.678 0 01-.4-.283.548.548 0 01-.06-.448.66.66 0 01.334-.394c.169-.092.39-.142.65-.142h3.733c.026-.037.05-.078.076-.115C22.27 8.309 23.096 7.542 24 7h-5.83z"/></svg><svg viewBox="0 0 644 373" id="page-title" xmlns="http://www.w3.org/2000/svg"><path d="M644 0L0 373V0z"/></svg><svg viewBox="0 0 30 27" id="stars" xmlns="http://www.w3.org/2000/svg"><path d="M6.773 26.686c-.724.346-1.545-.26-1.399-1.034L6.93 17.39.325 11.528c-.617-.548-.296-1.55.53-1.659l9.184-1.216 4.095-7.557c.37-.681 1.369-.681 1.738 0l4.095 7.557 9.184 1.216c.827.108 1.148 1.11.53 1.66l-6.605 5.861 1.556 8.262c.146.773-.675 1.38-1.399 1.034L15 22.746l-8.229 3.94h.002z"/></svg><svg viewBox="0 0 33 24" id="transferwise" xmlns="http://www.w3.org/2000/svg"><path d="M4.629.5h23.742C30.371.5 32 2.14 32 4.174v15.652c0 2.034-1.63 3.674-3.629 3.674H4.629c-2 0-3.629-1.64-3.629-3.674V4.174C1 2.14 2.63.5 4.629.5z"/><path d="M13.403 17.217c2.85 0 5.162-2.336 5.162-5.217s-2.311-5.217-5.162-5.217c-2.85 0-5.161 2.336-5.161 5.217s2.31 5.217 5.161 5.217z"/><path d="M19.597 17.217c2.85 0 5.161-2.336 5.161-5.217s-2.31-5.217-5.161-5.217c-2.85 0-5.162 2.336-5.162 5.217s2.311 5.217 5.162 5.217z"/><path opacity=".3" fill-rule="evenodd" clip-rule="evenodd" d="M16.5 7.826A5.228 5.228 0 0118.565 12a5.227 5.227 0 01-2.065 4.174A5.228 5.228 0 0114.435 12c0-1.707.811-3.222 2.065-4.174z"/></svg></svg>